<svg width="1200" height="600" viewBox="0 0 1200 600" fill="none" xmlns="http://www.w3.org/2000/svg">
<rect width="1200" height="600" fill="#0C3C26"/>
<path d="M239.111 452H223.633L223.73 440.574H239.111C242.952 440.574 246.191 439.712 248.828 437.986C251.465 436.229 253.451 433.673 254.785 430.32C256.152 426.967 256.836 422.915 256.836 418.162V414.695C256.836 411.049 256.445 407.843 255.664 405.076C254.915 402.309 253.792 399.982 252.295 398.094C250.798 396.206 248.958 394.79 246.777 393.846C244.596 392.869 242.09 392.381 239.258 392.381H223.34V380.906H239.258C244.01 380.906 248.356 381.72 252.295 383.348C256.266 384.943 259.701 387.238 262.598 390.232C265.495 393.227 267.725 396.808 269.287 400.975C270.882 405.109 271.68 409.715 271.68 414.793V418.162C271.68 423.208 270.882 427.814 269.287 431.98C267.725 436.147 265.495 439.728 262.598 442.723C259.733 445.685 256.299 447.98 252.295 449.607C248.324 451.202 243.929 452 239.111 452ZM231.934 380.906V452H217.285V380.906H231.934ZM282.227 399.168H296.338V455.174C296.338 459.08 295.622 462.384 294.189 465.086C292.757 467.788 290.69 469.839 287.988 471.238C285.286 472.638 282.015 473.338 278.174 473.338C276.969 473.338 275.798 473.273 274.658 473.143C273.486 473.012 272.282 472.801 271.045 472.508L271.094 461.717C271.875 461.847 272.64 461.945 273.389 462.01C274.105 462.107 274.837 462.156 275.586 462.156C277.051 462.156 278.271 461.912 279.248 461.424C280.225 460.936 280.957 460.171 281.445 459.129C281.966 458.12 282.227 456.801 282.227 455.174V399.168ZM281.104 385.398C281.104 383.348 281.82 381.655 283.252 380.32C284.717 378.986 286.637 378.318 289.014 378.318C291.423 378.318 293.343 378.986 294.775 380.32C296.208 381.655 296.924 383.348 296.924 385.398C296.924 387.449 296.208 389.142 294.775 390.477C293.343 391.811 291.423 392.479 289.014 392.479C286.637 392.479 284.717 391.811 283.252 390.477C281.82 389.142 281.104 387.449 281.104 385.398ZM336.035 440.086V416.551C336.035 414.858 335.758 413.41 335.205 412.205C334.652 410.968 333.789 410.008 332.617 409.324C331.478 408.641 329.997 408.299 328.174 408.299C326.611 408.299 325.26 408.576 324.121 409.129C322.982 409.65 322.103 410.415 321.484 411.424C320.866 412.4 320.557 413.556 320.557 414.891H306.494C306.494 412.645 307.015 410.512 308.057 408.494C309.098 406.476 310.612 404.702 312.598 403.172C314.583 401.609 316.943 400.389 319.678 399.51C322.445 398.631 325.537 398.191 328.955 398.191C333.057 398.191 336.702 398.875 339.893 400.242C343.083 401.609 345.589 403.66 347.412 406.395C349.268 409.129 350.195 412.547 350.195 416.648V439.256C350.195 442.153 350.374 444.529 350.732 446.385C351.09 448.208 351.611 449.803 352.295 451.17V452H338.086C337.402 450.568 336.882 448.777 336.523 446.629C336.198 444.448 336.035 442.267 336.035 440.086ZM337.891 419.822L337.988 427.781H330.127C328.271 427.781 326.66 427.993 325.293 428.416C323.926 428.839 322.803 429.441 321.924 430.223C321.045 430.971 320.394 431.85 319.971 432.859C319.58 433.868 319.385 434.975 319.385 436.18C319.385 437.384 319.661 438.475 320.215 439.451C320.768 440.395 321.566 441.144 322.607 441.697C323.649 442.218 324.87 442.479 326.27 442.479C328.385 442.479 330.225 442.055 331.787 441.209C333.35 440.363 334.554 439.321 335.4 438.084C336.279 436.847 336.735 435.675 336.768 434.568L340.479 440.525C339.958 441.86 339.242 443.243 338.33 444.676C337.451 446.108 336.328 447.459 334.961 448.729C333.594 449.965 331.95 450.991 330.029 451.805C328.109 452.586 325.83 452.977 323.193 452.977C319.84 452.977 316.797 452.309 314.062 450.975C311.361 449.607 309.212 447.736 307.617 445.359C306.055 442.951 305.273 440.216 305.273 437.156C305.273 434.389 305.794 431.932 306.836 429.783C307.878 427.635 309.408 425.828 311.426 424.363C313.477 422.866 316.032 421.743 319.092 420.994C322.152 420.213 325.7 419.822 329.736 419.822H337.891ZM374.805 410.447V452H360.742V399.168H373.926L374.805 410.447ZM372.754 423.729H368.945C368.945 419.822 369.45 416.307 370.459 413.182C371.468 410.024 372.884 407.339 374.707 405.125C376.53 402.879 378.695 401.17 381.201 399.998C383.74 398.794 386.572 398.191 389.697 398.191C392.171 398.191 394.434 398.549 396.484 399.266C398.535 399.982 400.293 401.121 401.758 402.684C403.255 404.246 404.395 406.313 405.176 408.885C405.99 411.456 406.396 414.598 406.396 418.309V452H392.236V418.26C392.236 415.916 391.911 414.093 391.26 412.791C390.609 411.489 389.648 410.577 388.379 410.057C387.142 409.503 385.612 409.227 383.789 409.227C381.901 409.227 380.257 409.601 378.857 410.35C377.49 411.098 376.351 412.14 375.439 413.475C374.561 414.777 373.893 416.307 373.438 418.064C372.982 419.822 372.754 421.71 372.754 423.729ZM450.537 399.168H463.281V450.242C463.281 455.06 462.207 459.145 460.059 462.498C457.943 465.883 454.98 468.439 451.172 470.164C447.363 471.922 442.936 472.801 437.891 472.801C435.677 472.801 433.333 472.508 430.859 471.922C428.418 471.336 426.074 470.424 423.828 469.188C421.615 467.951 419.759 466.388 418.262 464.5L424.463 456.199C426.09 458.087 427.979 459.552 430.127 460.594C432.275 461.668 434.652 462.205 437.256 462.205C439.795 462.205 441.943 461.733 443.701 460.789C445.459 459.878 446.81 458.527 447.754 456.736C448.698 454.979 449.17 452.846 449.17 450.34V411.375L450.537 399.168ZM414.99 426.219V425.193C414.99 421.157 415.479 417.495 416.455 414.207C417.464 410.887 418.88 408.038 420.703 405.662C422.559 403.286 424.805 401.447 427.441 400.145C430.078 398.842 433.057 398.191 436.377 398.191C439.893 398.191 442.839 398.842 445.215 400.145C447.591 401.447 449.544 403.302 451.074 405.711C452.604 408.087 453.792 410.903 454.639 414.158C455.518 417.381 456.201 420.913 456.689 424.754V427C456.201 430.678 455.469 434.096 454.492 437.254C453.516 440.411 452.23 443.178 450.635 445.555C449.04 447.898 447.054 449.721 444.678 451.023C442.334 452.326 439.535 452.977 436.279 452.977C433.024 452.977 430.078 452.309 427.441 450.975C424.837 449.64 422.607 447.768 420.752 445.359C418.896 442.951 417.464 440.118 416.455 436.863C415.479 433.608 414.99 430.06 414.99 426.219ZM429.053 425.193V426.219C429.053 428.4 429.264 430.434 429.688 432.322C430.111 434.21 430.762 435.887 431.641 437.352C432.552 438.784 433.675 439.907 435.01 440.721C436.377 441.502 437.988 441.893 439.844 441.893C442.415 441.893 444.515 441.355 446.143 440.281C447.77 439.174 448.991 437.661 449.805 435.74C450.618 433.82 451.09 431.606 451.221 429.1V422.703C451.156 420.652 450.879 418.813 450.391 417.186C449.902 415.525 449.219 414.109 448.34 412.938C447.461 411.766 446.322 410.854 444.922 410.203C443.522 409.552 441.862 409.227 439.941 409.227C438.086 409.227 436.475 409.65 435.107 410.496C433.773 411.31 432.65 412.433 431.738 413.865C430.859 415.298 430.192 416.99 429.736 418.943C429.281 420.864 429.053 422.947 429.053 425.193ZM471.973 426.121V425.096C471.973 421.222 472.526 417.658 473.633 414.402C474.74 411.115 476.351 408.266 478.467 405.857C480.583 403.449 483.187 401.577 486.279 400.242C489.372 398.875 492.92 398.191 496.924 398.191C500.928 398.191 504.492 398.875 507.617 400.242C510.742 401.577 513.363 403.449 515.479 405.857C517.627 408.266 519.255 411.115 520.361 414.402C521.468 417.658 522.021 421.222 522.021 425.096V426.121C522.021 429.962 521.468 433.527 520.361 436.814C519.255 440.07 517.627 442.918 515.479 445.359C513.363 447.768 510.758 449.64 507.666 450.975C504.574 452.309 501.025 452.977 497.021 452.977C493.018 452.977 489.453 452.309 486.328 450.975C483.236 449.64 480.615 447.768 478.467 445.359C476.351 442.918 474.74 440.07 473.633 436.814C472.526 433.527 471.973 429.962 471.973 426.121ZM486.035 425.096V426.121C486.035 428.335 486.23 430.402 486.621 432.322C487.012 434.243 487.63 435.936 488.477 437.4C489.355 438.833 490.495 439.956 491.895 440.77C493.294 441.583 495.003 441.99 497.021 441.99C498.975 441.99 500.651 441.583 502.051 440.77C503.451 439.956 504.574 438.833 505.42 437.4C506.266 435.936 506.885 434.243 507.275 432.322C507.699 430.402 507.91 428.335 507.91 426.121V425.096C507.91 422.947 507.699 420.929 507.275 419.041C506.885 417.12 506.25 415.428 505.371 413.963C504.525 412.465 503.402 411.294 502.002 410.447C500.602 409.601 498.91 409.178 496.924 409.178C494.938 409.178 493.245 409.601 491.846 410.447C490.479 411.294 489.355 412.465 488.477 413.963C487.63 415.428 487.012 417.12 486.621 419.041C486.23 420.929 486.035 422.947 486.035 425.096ZM584.131 426.658H566.016V415.232H584.131C586.93 415.232 589.209 414.777 590.967 413.865C592.725 412.921 594.01 411.619 594.824 409.959C595.638 408.299 596.045 406.427 596.045 404.344C596.045 402.228 595.638 400.258 594.824 398.436C594.01 396.613 592.725 395.148 590.967 394.041C589.209 392.934 586.93 392.381 584.131 392.381H571.094V452H556.445V380.906H584.131C589.697 380.906 594.466 381.915 598.438 383.934C602.441 385.919 605.501 388.67 607.617 392.186C609.733 395.701 610.791 399.721 610.791 404.246C610.791 408.836 609.733 412.807 607.617 416.16C605.501 419.513 602.441 422.101 598.438 423.924C594.466 425.747 589.697 426.658 584.131 426.658ZM647.949 440.086V416.551C647.949 414.858 647.673 413.41 647.119 412.205C646.566 410.968 645.703 410.008 644.531 409.324C643.392 408.641 641.911 408.299 640.088 408.299C638.525 408.299 637.174 408.576 636.035 409.129C634.896 409.65 634.017 410.415 633.398 411.424C632.78 412.4 632.471 413.556 632.471 414.891H618.408C618.408 412.645 618.929 410.512 619.971 408.494C621.012 406.476 622.526 404.702 624.512 403.172C626.497 401.609 628.857 400.389 631.592 399.51C634.359 398.631 637.451 398.191 640.869 398.191C644.971 398.191 648.617 398.875 651.807 400.242C654.997 401.609 657.503 403.66 659.326 406.395C661.182 409.129 662.109 412.547 662.109 416.648V439.256C662.109 442.153 662.288 444.529 662.646 446.385C663.005 448.208 663.525 449.803 664.209 451.17V452H650C649.316 450.568 648.796 448.777 648.438 446.629C648.112 444.448 647.949 442.267 647.949 440.086ZM649.805 419.822L649.902 427.781H642.041C640.186 427.781 638.574 427.993 637.207 428.416C635.84 428.839 634.717 429.441 633.838 430.223C632.959 430.971 632.308 431.85 631.885 432.859C631.494 433.868 631.299 434.975 631.299 436.18C631.299 437.384 631.576 438.475 632.129 439.451C632.682 440.395 633.48 441.144 634.521 441.697C635.563 442.218 636.784 442.479 638.184 442.479C640.299 442.479 642.139 442.055 643.701 441.209C645.264 440.363 646.468 439.321 647.314 438.084C648.193 436.847 648.649 435.675 648.682 434.568L652.393 440.525C651.872 441.86 651.156 443.243 650.244 444.676C649.365 446.108 648.242 447.459 646.875 448.729C645.508 449.965 643.864 450.991 641.943 451.805C640.023 452.586 637.744 452.977 635.107 452.977C631.755 452.977 628.711 452.309 625.977 450.975C623.275 449.607 621.126 447.736 619.531 445.359C617.969 442.951 617.188 440.216 617.188 437.156C617.188 434.389 617.708 431.932 618.75 429.783C619.792 427.635 621.322 425.828 623.34 424.363C625.391 422.866 627.946 421.743 631.006 420.994C634.066 420.213 637.614 419.822 641.65 419.822H649.805ZM694.775 441.99C696.501 441.99 698.031 441.665 699.365 441.014C700.7 440.33 701.742 439.386 702.49 438.182C703.271 436.945 703.678 435.496 703.711 433.836H716.943C716.911 437.547 715.918 440.851 713.965 443.748C712.012 446.613 709.391 448.875 706.104 450.535C702.816 452.163 699.137 452.977 695.068 452.977C690.967 452.977 687.386 452.293 684.326 450.926C681.299 449.559 678.776 447.671 676.758 445.262C674.74 442.82 673.226 439.988 672.217 436.766C671.208 433.51 670.703 430.027 670.703 426.316V424.9C670.703 421.157 671.208 417.674 672.217 414.451C673.226 411.196 674.74 408.364 676.758 405.955C678.776 403.514 681.299 401.609 684.326 400.242C687.354 398.875 690.902 398.191 694.971 398.191C699.3 398.191 703.092 399.021 706.348 400.682C709.635 402.342 712.207 404.718 714.062 407.811C715.951 410.87 716.911 414.5 716.943 418.699H703.711C703.678 416.941 703.304 415.346 702.588 413.914C701.904 412.482 700.895 411.342 699.561 410.496C698.258 409.617 696.647 409.178 694.727 409.178C692.676 409.178 690.999 409.617 689.697 410.496C688.395 411.342 687.386 412.514 686.67 414.012C685.954 415.477 685.449 417.153 685.156 419.041C684.896 420.896 684.766 422.85 684.766 424.9V426.316C684.766 428.367 684.896 430.337 685.156 432.225C685.417 434.113 685.905 435.789 686.621 437.254C687.37 438.719 688.395 439.874 689.697 440.721C690.999 441.567 692.692 441.99 694.775 441.99ZM739.16 376.951V452H725.098V376.951H739.16ZM772.461 399.168L749.512 425.34L737.207 437.791L732.08 427.635L741.846 415.232L755.566 399.168H772.461ZM757.861 452L742.236 427.586L751.953 419.09L774.072 452H757.861ZM807.031 440.086V416.551C807.031 414.858 806.755 413.41 806.201 412.205C805.648 410.968 804.785 410.008 803.613 409.324C802.474 408.641 800.993 408.299 799.17 408.299C797.607 408.299 796.257 408.576 795.117 409.129C793.978 409.65 793.099 410.415 792.48 411.424C791.862 412.4 791.553 413.556 791.553 414.891H777.49C777.49 412.645 778.011 410.512 779.053 408.494C780.094 406.476 781.608 404.702 783.594 403.172C785.579 401.609 787.939 400.389 790.674 399.51C793.441 398.631 796.533 398.191 799.951 398.191C804.053 398.191 807.699 398.875 810.889 400.242C814.079 401.609 816.585 403.66 818.408 406.395C820.264 409.129 821.191 412.547 821.191 416.648V439.256C821.191 442.153 821.37 444.529 821.729 446.385C822.087 448.208 822.607 449.803 823.291 451.17V452H809.082C808.398 450.568 807.878 448.777 807.52 446.629C807.194 444.448 807.031 442.267 807.031 440.086ZM808.887 419.822L808.984 427.781H801.123C799.268 427.781 797.656 427.993 796.289 428.416C794.922 428.839 793.799 429.441 792.92 430.223C792.041 430.971 791.39 431.85 790.967 432.859C790.576 433.868 790.381 434.975 790.381 436.18C790.381 437.384 790.658 438.475 791.211 439.451C791.764 440.395 792.562 441.144 793.604 441.697C794.645 442.218 795.866 442.479 797.266 442.479C799.382 442.479 801.221 442.055 802.783 441.209C804.346 440.363 805.55 439.321 806.396 438.084C807.275 436.847 807.731 435.675 807.764 434.568L811.475 440.525C810.954 441.86 810.238 443.243 809.326 444.676C808.447 446.108 807.324 447.459 805.957 448.729C804.59 449.965 802.946 450.991 801.025 451.805C799.105 452.586 796.826 452.977 794.189 452.977C790.837 452.977 787.793 452.309 785.059 450.975C782.357 449.607 780.208 447.736 778.613 445.359C777.051 442.951 776.27 440.216 776.27 437.156C776.27 434.389 776.79 431.932 777.832 429.783C778.874 427.635 780.404 425.828 782.422 424.363C784.473 422.866 787.028 421.743 790.088 420.994C793.148 420.213 796.696 419.822 800.732 419.822H808.887ZM865.479 399.168H878.223V450.242C878.223 455.06 877.148 459.145 875 462.498C872.884 465.883 869.922 468.439 866.113 470.164C862.305 471.922 857.878 472.801 852.832 472.801C850.618 472.801 848.275 472.508 845.801 471.922C843.359 471.336 841.016 470.424 838.77 469.188C836.556 467.951 834.701 466.388 833.203 464.5L839.404 456.199C841.032 458.087 842.92 459.552 845.068 460.594C847.217 461.668 849.593 462.205 852.197 462.205C854.736 462.205 856.885 461.733 858.643 460.789C860.4 459.878 861.751 458.527 862.695 456.736C863.639 454.979 864.111 452.846 864.111 450.34V411.375L865.479 399.168ZM829.932 426.219V425.193C829.932 421.157 830.42 417.495 831.396 414.207C832.406 410.887 833.822 408.038 835.645 405.662C837.5 403.286 839.746 401.447 842.383 400.145C845.02 398.842 847.998 398.191 851.318 398.191C854.834 398.191 857.78 398.842 860.156 400.145C862.533 401.447 864.486 403.302 866.016 405.711C867.546 408.087 868.734 410.903 869.58 414.158C870.459 417.381 871.143 420.913 871.631 424.754V427C871.143 430.678 870.41 434.096 869.434 437.254C868.457 440.411 867.171 443.178 865.576 445.555C863.981 447.898 861.995 449.721 859.619 451.023C857.275 452.326 854.476 452.977 851.221 452.977C847.965 452.977 845.02 452.309 842.383 450.975C839.779 449.64 837.549 447.768 835.693 445.359C833.838 442.951 832.406 440.118 831.396 436.863C830.42 433.608 829.932 430.06 829.932 426.219ZM843.994 425.193V426.219C843.994 428.4 844.206 430.434 844.629 432.322C845.052 434.21 845.703 435.887 846.582 437.352C847.493 438.784 848.617 439.907 849.951 440.721C851.318 441.502 852.93 441.893 854.785 441.893C857.357 441.893 859.456 441.355 861.084 440.281C862.712 439.174 863.932 437.661 864.746 435.74C865.56 433.82 866.032 431.606 866.162 429.1V422.703C866.097 420.652 865.82 418.813 865.332 417.186C864.844 415.525 864.16 414.109 863.281 412.938C862.402 411.766 861.263 410.854 859.863 410.203C858.464 409.552 856.803 409.227 854.883 409.227C853.027 409.227 851.416 409.65 850.049 410.496C848.714 411.31 847.591 412.433 846.68 413.865C845.801 415.298 845.133 416.99 844.678 418.943C844.222 420.864 843.994 422.947 843.994 425.193ZM913.477 452.977C909.375 452.977 905.697 452.326 902.441 451.023C899.186 449.689 896.419 447.85 894.141 445.506C891.895 443.162 890.169 440.444 888.965 437.352C887.76 434.227 887.158 430.906 887.158 427.391V425.438C887.158 421.434 887.728 417.771 888.867 414.451C890.007 411.131 891.634 408.25 893.75 405.809C895.898 403.367 898.503 401.495 901.562 400.193C904.622 398.859 908.073 398.191 911.914 398.191C915.658 398.191 918.978 398.81 921.875 400.047C924.772 401.284 927.197 403.042 929.15 405.32C931.136 407.599 932.633 410.333 933.643 413.523C934.652 416.681 935.156 420.197 935.156 424.07V429.93H893.164V420.555H921.338V419.48C921.338 417.527 920.98 415.786 920.264 414.256C919.58 412.693 918.538 411.456 917.139 410.545C915.739 409.633 913.949 409.178 911.768 409.178C909.912 409.178 908.317 409.585 906.982 410.398C905.648 411.212 904.557 412.352 903.711 413.816C902.897 415.281 902.279 417.007 901.855 418.992C901.465 420.945 901.27 423.094 901.27 425.438V427.391C901.27 429.507 901.562 431.46 902.148 433.25C902.767 435.04 903.63 436.587 904.736 437.889C905.876 439.191 907.243 440.2 908.838 440.916C910.465 441.632 912.305 441.99 914.355 441.99C916.895 441.99 919.255 441.502 921.436 440.525C923.649 439.516 925.553 438.003 927.148 435.984L933.984 443.406C932.878 445.001 931.364 446.531 929.443 447.996C927.555 449.461 925.277 450.665 922.607 451.609C919.938 452.521 916.895 452.977 913.477 452.977ZM971.729 437.4C971.729 436.391 971.436 435.48 970.85 434.666C970.264 433.852 969.173 433.104 967.578 432.42C966.016 431.704 963.753 431.053 960.791 430.467C958.122 429.881 955.632 429.148 953.32 428.27C951.042 427.358 949.056 426.268 947.363 424.998C945.703 423.729 944.401 422.231 943.457 420.506C942.513 418.748 942.041 416.746 942.041 414.5C942.041 412.286 942.513 410.203 943.457 408.25C944.434 406.297 945.817 404.572 947.607 403.074C949.43 401.544 951.644 400.356 954.248 399.51C956.885 398.631 959.847 398.191 963.135 398.191C967.725 398.191 971.663 398.924 974.951 400.389C978.271 401.854 980.811 403.872 982.568 406.443C984.359 408.982 985.254 411.88 985.254 415.135H971.191C971.191 413.768 970.898 412.547 970.312 411.473C969.759 410.366 968.88 409.503 967.676 408.885C966.504 408.234 964.974 407.908 963.086 407.908C961.523 407.908 960.173 408.185 959.033 408.738C957.894 409.259 957.015 409.975 956.396 410.887C955.811 411.766 955.518 412.742 955.518 413.816C955.518 414.63 955.68 415.363 956.006 416.014C956.364 416.632 956.934 417.202 957.715 417.723C958.496 418.243 959.505 418.732 960.742 419.188C962.012 419.611 963.574 420.001 965.43 420.359C969.238 421.141 972.64 422.166 975.635 423.436C978.63 424.673 981.006 426.365 982.764 428.514C984.521 430.63 985.4 433.413 985.4 436.863C985.4 439.207 984.88 441.355 983.838 443.309C982.796 445.262 981.299 446.971 979.346 448.436C977.393 449.868 975.049 450.991 972.314 451.805C969.613 452.586 966.569 452.977 963.184 452.977C958.268 452.977 954.102 452.098 950.684 450.34C947.298 448.582 944.727 446.352 942.969 443.65C941.243 440.916 940.381 438.117 940.381 435.252H953.711C953.776 437.173 954.264 438.719 955.176 439.891C956.12 441.062 957.308 441.909 958.74 442.43C960.205 442.951 961.784 443.211 963.477 443.211C965.299 443.211 966.813 442.967 968.018 442.479C969.222 441.958 970.133 441.274 970.752 440.428C971.403 439.549 971.729 438.54 971.729 437.4Z" fill="white"/>
<path d="M481.802 237.037H385V333.865H481.802V237.037Z" fill="white"/>
<path d="M592.809 237.037H496.007V333.865H592.809V237.037Z" fill="white"/>
<path d="M703.815 237.037H607.013V333.865H703.815V237.037Z" fill="white"/>
<path d="M814.822 237.037H718.02V333.865H814.822V237.037Z" fill="white"/>
<path d="M481.802 126H385V222.828H481.802V126Z" fill="white"/>
<path d="M592.809 126H496.007V222.828H592.809V126Z" fill="white"/>
<path d="M703.815 126H607.013V222.828H703.815V126Z" fill="white"/>
<path d="M814.822 126H718.02V222.828H814.822V126Z" fill="white"/>
</svg>
